<?xml version="1.0" encoding="UTF-8" standalone="no"?>
<!-- Created with Inkscape (http://www.inkscape.org/) -->

<svg
   width="371.81213"
   height="213.89435"
   viewBox="0 0 371.81213 213.89435"
   version="1.1"
   id="svg1"
   inkscape:version="1.3.2 (091e20e, 2023-11-25, custom)"
   sodipodi:docname="dibujo.svg"
   xml:space="preserve"
   xmlns:inkscape="http://www.inkscape.org/namespaces/inkscape"
   xmlns:sodipodi="http://sodipodi.sourceforge.net/DTD/sodipodi-0.dtd"
   xmlns="http://www.w3.org/2000/svg"
   xmlns:svg="http://www.w3.org/2000/svg"><sodipodi:namedview
     id="namedview1"
     pagecolor="#ffffff"
     bordercolor="#000000"
     borderopacity="0.25"
     inkscape:showpageshadow="2"
     inkscape:pageopacity="0.0"
     inkscape:pagecheckerboard="0"
     inkscape:deskcolor="#d1d1d1"
     inkscape:document-units="px"
     inkscape:zoom="0.70710678"
     inkscape:cx="628.61793"
     inkscape:cy="501.33871"
     inkscape:window-width="1920"
     inkscape:window-height="1001"
     inkscape:window-x="-9"
     inkscape:window-y="-9"
     inkscape:window-maximized="1"
     inkscape:current-layer="layer1" /><defs
     id="defs1" /><g
     inkscape:label="Capa 1"
     inkscape:groupmode="layer"
     id="layer1"
     transform="translate(-826,-537)"><g
       id="g21"
       transform="translate(17.970563,-12)"
       inkscape:export-filename="abierto.png"
       inkscape:export-xdpi="96"
       inkscape:export-ydpi="96"><g
         id="g1"
         transform="translate(-25,35)"><g
           id="g20"><a
             id="a16"
             style="stroke-width:16;stroke-dasharray:none"
             transform="matrix(1.2414538,0,0,1.2414538,-245.61353,-150.38032)"><path
               id="path11-4"
               style="fill:none;stroke:#7bbe45;stroke-width:16;stroke-linejoin:round;stroke-dasharray:none;stroke-opacity:1"
               d="m 1159.2781,611.87713 c -6.3426,-38.05659 -39.3573,-65.89099 -77.9384,-65.70903 -38.5811,0.18198 -71.3318,28.32657 -77.3151,66.44131 -5.98329,38.11472 16.5683,74.94071 53.235,86.84741 L 1072.8664,650.73 c -13.409,-4.42366 -21.6201,-17.83216 -19.4416,-31.70988 2.1785,-13.87771 14.1032,-24.12524 28.1507,-24.19154 14.0475,-0.0663 26.0683,10.06836 28.3777,23.92492 2.3093,13.85657 -4.4313,26.63881 -17.6642,31.13311 l 14.6084,49.46131 c 36.5201,-12.3771 58.7233,-49.4142 52.3807,-87.47079 z"
               sodipodi:nodetypes="sssccsssccs" /></a><path
             style="fill:#ffb04d;fill-opacity:1"
             d="m 894.66404,727.01141 c -12.24043,-0.98696 -24.44674,-5.56513 -34.32049,-12.87244 -5.22843,-3.86942 -10.43459,-9.07559 -14.30402,-14.30401 -6.93138,-9.3658 -11.22469,-20.34669 -12.67946,-32.42996 -0.36473,-3.02938 -0.44416,-9.64122 -0.15549,-12.94289 1.43761,-16.44283 8.38843,-31.192 20.05893,-42.56376 10.86324,-10.58516 24.30691,-16.93205 39.72813,-18.75606 3.10184,-0.36688 11.29532,-0.36688 14.39716,0 9.1875,1.08669 17.81968,3.8159 25.29254,7.99667 0.95345,0.53342 1.79217,0.96986 1.86381,0.96986 0.0763,0 0.10676,-7.06169 0.0735,-17.05118 -0.0557,-16.7436 -0.0625,-17.0874 -0.37798,-19.05948 -0.5979,-3.7382 -1.52562,-6.74945 -3.05513,-9.91661 -4.70946,-9.75191 -13.59932,-16.63705 -24.21374,-18.75339 -17.76918,-3.54287 -35.29785,7.49086 -39.84228,25.07941 -0.86171,3.33513 -1.10889,5.99377 -1.11206,11.96128 l -0.002,4.32641 H 854.6562 843.29695 l 0.0732,-6.28966 c 0.0618,-5.30966 0.12115,-6.64088 0.38072,-8.54377 0.90678,-6.64751 2.48419,-11.96349 5.2522,-17.70021 1.88869,-3.91434 4.16769,-7.52696 6.94654,-11.0115 1.72768,-2.16642 6.10184,-6.57391 8.24926,-8.31211 9.02164,-7.30246 19.40955,-11.55865 30.8951,-12.65854 3.2645,-0.31261 9.47006,-0.20315 12.58595,0.22201 12.94679,1.76659 24.54984,7.5793 33.44891,16.75668 7.98691,8.2367 13.20233,18.32453 15.25375,29.5043 0.91312,4.97633 0.86671,3.27066 0.95362,35.04762 l 0.0793,29.01245 0.81727,1.38155 c 5.02575,8.49569 8.04328,18.06389 8.94331,28.35803 0.28867,3.30167 0.20924,9.91351 -0.15548,12.94289 -1.62063,13.46089 -6.48134,24.91419 -15.05914,35.4839 -2.02375,2.49369 -6.93839,7.32694 -9.67025,9.51009 -10.68628,8.5399 -23.37895,13.56885 -36.92291,14.6292 -2.18659,0.17119 -8.49554,0.1613 -10.70404,-0.0168 z m 9.23454,-22.67342 c 8.74895,-0.73994 17.10808,-4.06996 24.06797,-9.58793 1.95926,-1.55335 5.4321,-5.02619 6.98545,-6.98544 2.67303,-3.37154 5.52916,-8.3807 6.88229,-12.07035 5.09117,-13.88244 3.27124,-28.85236 -4.96804,-40.86465 -1.57424,-2.29513 -3.03772,-4.03656 -5.25926,-6.2581 -2.22061,-2.22061 -3.96095,-3.68331 -6.2581,-5.25975 -10.17423,-6.98215 -22.81717,-9.41857 -34.87489,-6.72075 -17.09622,3.82515 -30.4581,17.46278 -33.89941,34.59901 -0.6372,3.17297 -0.79791,4.94507 -0.79791,8.79826 0,3.97717 0.16268,5.67597 0.87735,9.16182 1.33709,6.52172 4.49007,13.2106 8.77442,18.61451 1.55335,1.95925 5.02618,5.43209 6.98544,6.98544 8.95942,7.10325 20.24119,10.53885 31.48469,9.58793 z m -5.51036,-25.44339 c -7.31613,-0.92223 -13.24264,-5.63047 -15.70119,-12.4736 -1.37431,-3.82528 -1.37525,-8.58329 -0.002,-12.42915 0.50903,-1.42604 1.36434,-3.10798 2.26428,-4.45264 0.95052,-1.42024 3.36251,-3.83541 4.77291,-4.77921 6.60984,-4.4231 14.67842,-4.45529 21.27098,-0.0849 1.39095,0.9221 3.94949,3.47503 4.88126,4.87054 2.2389,3.35323 3.27388,6.72344 3.27388,10.66076 0,5.14168 -1.85082,9.60585 -5.49225,13.24728 -2.71565,2.71565 -5.81278,4.38974 -9.51816,5.14485 -1.66662,0.33963 -4.31969,0.47625 -5.74927,0.29604 z"
             id="path20-3" /></g><text
           xml:space="preserve"
           style="font-style:italic;font-variant:normal;font-weight:normal;font-stretch:normal;font-size:66.6667px;line-height:0;font-family:'Liberation Mono';-inkscape-font-specification:'Liberation Mono, Italic';font-variant-ligatures:normal;font-variant-caps:normal;font-variant-numeric:normal;font-variant-east-asian:normal;word-spacing:0px;fill:#000000;fill-opacity:1;stroke:#000000;stroke-width:4.33257;stroke-linejoin:round"
           x="1018.6913"
           y="496.25311"
           id="text1-2-6-8"><tspan
             sodipodi:role="line"
             id="tspan1-9-9-9"
             x="1018.6913"
             y="496.25311"
             style="font-style:italic;font-variant:normal;font-weight:normal;font-stretch:normal;font-size:66.6667px;line-height:1.25;font-family:'Liberation Mono';-inkscape-font-specification:'Liberation Mono, Italic';font-variant-ligatures:normal;font-variant-caps:normal;font-variant-numeric:normal;font-variant-east-asian:normal;text-align:center;text-anchor:middle;fill:#000000;fill-opacity:1;stroke:none;stroke-width:4.33257" /><tspan
             sodipodi:role="line"
             x="1018.6913"
             y="572.9198"
             style="font-style:italic;font-variant:normal;font-weight:normal;font-stretch:normal;font-size:66.6667px;line-height:1.05;font-family:'Liberation Mono';-inkscape-font-specification:'Liberation Mono, Italic';font-variant-ligatures:normal;font-variant-caps:normal;font-variant-numeric:normal;font-variant-east-asian:normal;text-align:center;text-anchor:middle;fill:#000000;fill-opacity:1;stroke:none;stroke-width:4.33257"
             id="tspan8-5">ACCESO Y</tspan><tspan
             sodipodi:role="line"
             x="1018.6913"
             y="642.91986"
             style="font-style:italic;font-variant:normal;font-weight:normal;font-stretch:normal;font-size:66.6667px;line-height:1.05;font-family:'Liberation Mono';-inkscape-font-specification:'Liberation Mono, Italic';font-variant-ligatures:normal;font-variant-caps:normal;font-variant-numeric:normal;font-variant-east-asian:normal;text-align:center;text-anchor:middle;fill:#000000;fill-opacity:1;stroke:none;stroke-width:4.33257"
             id="tspan18">CÓDIGO</tspan><tspan
             sodipodi:role="line"
             x="1018.6913"
             y="712.91986"
             style="font-style:italic;font-variant:normal;font-weight:normal;font-stretch:normal;font-size:66.6667px;line-height:1.05;font-family:'Liberation Mono';-inkscape-font-specification:'Liberation Mono, Italic';font-variant-ligatures:normal;font-variant-caps:normal;font-variant-numeric:normal;font-variant-east-asian:normal;text-align:center;text-anchor:middle;fill:#000000;fill-opacity:1;stroke:none;stroke-width:4.33257"
             id="tspan19">ABIERTO</tspan></text></g></g></g></svg>
